<?xml version="1.0" standalone="no"?>
<!DOCTYPE svg PUBLIC "-//W3C//DTD SVG 20010904//EN"
 "http://www.w3.org/TR/2001/REC-SVG-20010904/DTD/svg10.dtd">
<svg version="1.0" xmlns="http://www.w3.org/2000/svg"
 width="786.000000pt" height="599.000000pt" viewBox="0 0 786.000000 599.000000"
 preserveAspectRatio="xMidYMid meet">

<!-- Fond blanc -->
<rect width="786.000000" height="599.000000" fill="#FFFFFF"/>

<g transform="translate(0.000000,599.000000) scale(0.100000,-0.100000)"
fill="#0284c7" stroke="none">
<path d="M4590 5886 c0 -2 8 -10 18 -17 15 -13 16 -12 3 4 -13 16 -21 21 -21
13z"/>
<path d="M3805 5750 c-3 -6 1 -7 9 -4 18 7 21 14 7 14 -6 0 -13 -4 -16 -10z"/>
<path d="M4710 5756 c0 -2 7 -7 16 -10 8 -3 12 -2 9 4 -6 10 -25 14 -25 6z"/>
<path d="M3965 5580 c-28 -7 -27 -8 13 -9 27 -1 41 3 37 9 -7 11 -7 11 -50 0z"/>
<path d="M4035 5580 c3 -5 36 -10 73 -10 99 -1 319 -31 367 -50 11 -5 66 -22
121 -39 121 -37 278 -108 393 -180 81 -50 84 -51 108 -35 32 20 27 26 -91 93
-162 92 -468 204 -511 187 -8 -3 -15 -1 -17 4 -2 5 -51 16 -109 24 -120 18
-344 22 -334 6z"/>
<path d="M5309 5453 c-13 -16 -12 -17 4 -4 9 7 17 15 17 17 0 8 -8 3 -21 -13z"/>
<path d="M4570 5356 c100 -37 211 -89 316 -151 72 -43 99 -54 108 -45 8 8 5
16 -14 30 -44 34 -223 117 -315 148 -112 37 -185 51 -95 18z"/>
<path d="M5105 5260 c-11 -12 -15 -24 -9 -29 5 -4 43 -35 84 -68 92 -74 220
-206 285 -293 27 -36 50 -67 52 -69 2 -3 15 7 30 21 l26 27 -44 58 c-64 84
-243 261 -324 321 -38 28 -73 52 -76 52 -3 0 -14 -9 -24 -20z"/>
<path d="M2586 5195 c4 -8 11 -15 16 -15 6 0 5 6 -2 15 -7 8 -14 15 -16 15 -2
0 -1 -7 2 -15z"/>
<path d="M5000 5155 c-7 -9 -11 -17 -9 -18 2 -2 32 -25 67 -51 89 -68 222
-205 305 -316 125 -166 235 -410 283 -630 61 -282 41 -587 -57 -865 -17 -49
-32 -100 -33 -112 0 -11 -4 -19 -8 -17 -3 2 -20 -26 -38 -63 -17 -37 -48 -95
-69 -128 -57 -91 -56 -89 -40 -80 17 9 -36 -49 -144 -161 -78 -80 -78 -80 -57
-99 20 -18 21 -18 61 21 98 93 278 331 271 357 -2 5 6 19 16 31 31 33 44 65
37 89 -5 16 -4 18 3 8 12 -17 20 -3 68 121 55 145 91 335 95 501 3 95 2 98
-27 129 l-29 33 29 -25 29 -25 -7 97 c-8 128 -11 134 -45 112 l-26 -17 28 30
27 29 -25 100 c-30 118 -64 211 -118 319 -61 123 -108 197 -122 191 -8 -3 -11
2 -8 12 9 38 -211 276 -352 380 -83 61 -91 64 -105 47z m484 -2207 c-20 -24
-45 -47 -53 -52 -9 -5 6 14 34 43 60 62 72 67 19 9z"/>
<path d="M2660 5121 c0 -5 7 -12 16 -15 14 -5 15 -4 4 9 -14 17 -20 19 -20 6z"/>
<path d="M5145 4840 c166 -185 290 -415 346 -638 15 -63 33 -120 40 -128 8
-10 8 -14 0 -14 -7 0 -9 -10 -7 -22 3 -13 8 -45 11 -72 l7 -48 24 23 c25 23
32 63 13 74 -6 4 -8 13 -5 21 10 27 -54 248 -104 357 -69 152 -160 286 -274
407 -66 69 -104 100 -51 40z"/>
<path d="M4090 4791 c0 -46 2 -49 28 -52 62 -9 72 -2 72 52 l0 49 -50 0 -50 0
0 -49z"/>
<path d="M5548 4811 c-10 -10 -18 -20 -18 -24 0 -3 20 -40 45 -81 88 -150 156
-310 195 -461 11 -40 23 -69 30 -67 7 1 8 -3 2 -13 -5 -10 -3 -47 4 -93 7 -42
16 -126 20 -187 5 -78 11 -116 23 -130 14 -17 14 -18 0 -7 -14 11 -17 -2 -28
-121 -8 -77 -27 -188 -47 -267 -19 -74 -34 -137 -34 -140 0 -2 18 14 40 35 31
30 45 56 59 105 25 85 39 157 50 255 8 69 7 83 -7 100 -16 19 -16 19 2 5 19
-15 19 -11 13 155 -5 146 -27 318 -42 333 -2 3 -13 -1 -22 -9 -16 -12 -16 -11
1 8 18 21 17 24 -10 120 -42 149 -119 315 -225 481 -16 26 -28 27 -51 3z"/>
<path d="M3380 4535 l0 -75 75 0 75 0 0 75 0 75 -75 0 -75 0 0 -75z"/>
<path d="M3850 4399 l0 -50 48 3 47 3 1 48 2 47 -49 0 -49 0 0 -51z"/>
<path d="M4237 4423 c-4 -3 -7 -37 -7 -75 l0 -68 75 0 75 0 0 75 0 75 -68 0
c-38 0 -72 -3 -75 -7z"/>
<path d="M4614 4156 c-3 -7 -4 -42 -2 -77 l3 -64 73 -3 72 -3 0 74 c0 86 -1
87 -86 87 -37 0 -56 -4 -60 -14z"/>
<path d="M4347 4134 c-4 -4 -7 -27 -7 -51 l0 -43 51 0 50 0 -3 48 -3 47 -40 3
c-23 2 -44 0 -48 -4z"/>
<path d="M3640 4090 l0 -40 40 0 40 0 0 40 0 40 -40 0 -40 0 0 -40z"/>
<path d="M3815 4118 c-2 -7 -4 -33 -2 -58 l2 -45 60 0 60 0 0 55 0 55 -58 3
c-40 2 -59 -1 -62 -10z"/>
<path d="M3330 4051 c0 -66 3 -69 75 -67 l40 1 3 63 3 62 -61 0 -60 0 0 -59z"/>
<path d="M4040 3970 l0 -50 45 0 45 0 0 44 c0 48 -9 56 -61 56 -28 0 -29 -1
-29 -50z"/>
<path d="M2020 3960 c0 -5 5 -10 10 -10 6 0 10 5 10 10 0 6 -4 10 -10 10 -5 0
-10 -4 -10 -10z"/>
<path d="M5559 3922 c-12 -14 -17 -53 -22 -158 -7 -151 -28 -271 -72 -405
l-28 -86 22 -22 c11 -11 25 -21 30 -21 11 0 54 135 82 255 27 118 40 455 18
455 -8 0 -22 -8 -30 -18z"/>
<path d="M2824 3857 c-2 -7 37 -217 87 -467 50 -250 94 -468 96 -483 l5 -28
25 23 c56 52 84 122 114 284 28 154 39 184 65 184 25 0 34 -37 28 -107 -5 -55
-3 -71 9 -81 23 -19 47 -4 149 94 80 77 116 99 119 74 1 -5 2 -16 3 -22 1 -7
-1 -15 -4 -18 -3 -3 -30 -32 -60 -65 l-55 -59 50 35 c74 52 140 89 158 89 44
0 4 -48 -115 -138 -88 -68 -91 -77 -12 -47 124 48 146 55 170 55 55 0 15 -37
-103 -96 l-88 -44 76 0 c82 0 123 -16 97 -38 -8 -6 -55 -16 -104 -22 -132 -15
-231 -58 -298 -129 l-30 -31 125 -1 c139 -1 140 -1 224 -19 119 -25 240 -77
358 -154 l27 -18 0 486 0 487 -65 31 c-62 28 -67 29 -90 14 -31 -20 -89 -21
-105 0 -8 8 -16 32 -19 52 -6 34 -11 39 -62 59 -83 33 -287 82 -407 98 -139
19 -361 20 -368 2z"/>
<path d="M3900 3825 c0 -34 1 -35 40 -35 39 0 40 1 40 35 0 34 -1 35 -40 35
-39 0 -40 -1 -40 -35z"/>
<path d="M3695 3710 c-8 -13 16 -49 37 -56 21 -6 63 15 52 26 -18 16 -84 39
-89 30z"/>
<path d="M5763 3228 c-44 -45 -98 -164 -87 -193 4 -10 2 -14 -7 -10 -9 3 -23
-13 -39 -47 -62 -129 -167 -280 -277 -398 -37 -40 -53 -64 -46 -71 12 -12 161
142 240 248 79 108 152 233 146 251 -4 9 -2 13 4 9 7 -4 29 34 57 98 43 99 63
155 54 155 -2 0 -23 -19 -45 -42z"/>
<path d="M5408 3212 c-54 -124 -195 -327 -292 -421 -25 -24 -43 -48 -40 -53 3
-4 -1 -8 -9 -8 -7 0 -31 -15 -53 -34 -106 -90 -321 -213 -444 -252 -30 -10
-57 -20 -60 -24 -5 -6 -215 -46 -290 -55 -82 -9 -234 -7 -325 5 -80 10 -246
46 -300 65 -24 9 39 -56 70 -72 31 -16 191 -51 275 -60 141 -15 325 -7 459 21
68 14 126 28 130 31 3 3 -1 16 -8 28 l-14 22 24 -22 c23 -20 26 -21 69 -6 136
45 359 172 463 263 38 34 45 45 36 56 -7 8 -9 17 -5 21 3 3 6 1 6 -5 0 -7 9
-12 20 -12 44 0 251 271 327 428 31 65 34 77 23 97 -23 42 -40 39 -62 -13z
m-1435 -877 c-3 -9 -8 -14 -10 -11 -3 3 -2 9 2 15 9 16 15 13 8 -4z"/>
<path d="M2905 2920 c40 -72 242 -281 334 -344 33 -23 44 -27 54 -17 9 10 7
16 -13 29 -113 76 -252 197 -339 297 -25 28 -41 43 -36 35z"/>
<path d="M2595 2739 c-4 -6 -5 -12 -2 -15 2 -3 7 2 10 11 7 17 1 20 -8 4z"/>
<path d="M5086 2545 c-43 -41 -82 -72 -87 -70 -4 3 -11 0 -15 -6 -5 -8 -3 -9
6 -4 9 5 11 4 6 -4 -4 -6 -11 -9 -16 -6 -5 3 -41 -15 -80 -41 -39 -25 -114
-66 -167 -90 -53 -25 -93 -47 -90 -51 15 -14 249 89 276 121 7 9 17 13 22 11
14 -9 137 75 268 181 7 6 -21 34 -33 34 -6 -1 -46 -34 -90 -75z"/>
<path d="M3301 2556 c-9 -10 -3 -19 27 -39 49 -32 187 -101 255 -128 l52 -20
-44 45 c-29 29 -64 52 -103 67 -32 12 -84 37 -115 55 -65 39 -58 38 -72 20z"/>
<path d="M5235 2462 c-27 -25 -72 -62 -98 -84 -78 -61 -40 -44 48 22 95 72
120 96 109 103 -5 3 -31 -16 -59 -41z"/>
<path d="M4565 2255 c-33 -13 -56 -24 -52 -24 20 -2 117 31 117 40 0 11 7 13
-65 -16z"/>
<path d="M4100 1885 c13 -14 26 -25 28 -25 3 0 -5 11 -18 25 -13 14 -26 25
-28 25 -3 0 5 -11 18 -25z"/>
<path d="M3122 1473 c-78 -224 -124 -339 -142 -355 -11 -9 -20 -18 -20 -21 0
-7 99 -1 107 6 3 4 -6 7 -20 7 -32 0 -33 4 -6 75 l20 55 90 0 89 0 15 -36 c19
-46 19 -83 0 -90 -32 -13 -12 -20 50 -21 36 0 65 4 65 9 0 4 -8 8 -19 8 -12 0
-20 9 -24 28 -9 43 -159 422 -168 422 -4 0 -21 -39 -37 -87z m72 -104 c20 -55
36 -102 36 -105 0 -2 -36 -4 -80 -4 -44 0 -80 3 -80 7 0 17 73 203 80 203 4 0
24 -45 44 -101z"/>
<path d="M4064 1503 c-12 -32 -47 -128 -78 -213 -32 -90 -64 -162 -76 -172
-11 -9 -20 -18 -20 -21 0 -7 98 -2 106 6 4 4 -5 7 -19 7 -31 0 -32 7 -8 75
l18 50 91 3 92 3 11 -28 c22 -58 23 -85 4 -100 -22 -16 -26 -14 53 -17 34 -2
62 1 62 6 0 4 -8 8 -19 8 -12 0 -20 9 -24 29 -8 40 -158 421 -166 421 -3 0
-16 -26 -27 -57z m60 -133 c20 -52 36 -98 36 -102 0 -5 -36 -8 -81 -8 -61 0
-80 3 -77 13 3 6 20 56 38 110 18 54 37 94 40 90 4 -5 24 -51 44 -103z"/>
<path d="M2590 1540 c0 -5 11 -10 25 -10 l25 0 0 -191 c0 -193 -6 -229 -37
-229 -9 0 -13 -3 -9 -7 11 -12 146 -13 146 -2 0 5 -12 9 -27 9 l-28 0 2 77 2
78 61 8 c78 10 135 38 160 80 43 70 10 161 -65 183 -49 15 -255 18 -255 4z
m232 -26 c36 -18 48 -43 48 -95 0 -79 -46 -124 -137 -133 l-43 -5 0 124 c0 89
3 125 13 129 18 7 88 -4 119 -20z"/>
<path d="M3420 1540 c0 -5 9 -10 20 -10 19 0 20 -7 20 -195 0 -181 -1 -196
-20 -215 -20 -20 -20 -20 3 -24 43 -7 87 -5 87 4 0 6 -11 10 -25 10 l-25 0 0
180 c0 99 3 180 8 180 4 0 14 -11 22 -24 33 -53 273 -366 280 -366 13 0 18 59
19 250 1 174 3 186 22 203 21 17 20 17 -35 17 -31 0 -56 -4 -56 -10 0 -5 10
-10 23 -10 l22 0 -3 -167 c-1 -93 -4 -174 -5 -182 -1 -8 -42 41 -92 108 -192
260 -193 261 -231 261 -19 0 -34 -4 -34 -10z"/>
<path d="M4350 1540 c0 -5 11 -10 26 -10 l25 0 -5 -82 c-3 -46 -8 -134 -11
-196 -7 -125 -10 -142 -32 -142 -8 0 -12 -4 -9 -9 3 -4 27 -7 53 -6 65 4 73 6
39 14 l-29 6 2 175 c1 97 6 179 12 185 6 6 12 2 15 -11 3 -12 20 -57 38 -100
77 -183 120 -274 129 -271 9 3 137 303 154 360 10 32 23 18 24 -25 0 -24 4
-91 8 -150 10 -123 5 -159 -20 -165 -10 -3 -16 -9 -14 -14 7 -10 135 -7 135 4
0 4 -10 7 -23 7 -24 0 -24 1 -35 188 -7 103 -9 197 -6 208 3 12 15 27 27 33
18 9 14 10 -28 8 l-50 -2 -37 -90 c-96 -238 -115 -280 -124 -278 -4 0 -44 85
-88 187 l-80 186 -48 0 c-26 0 -48 -4 -48 -10z"/>
<path d="M4960 1540 c0 -5 11 -10 25 -10 l25 0 0 -191 c0 -191 -6 -229 -36
-229 -8 0 -13 -4 -9 -10 6 -9 296 -11 323 -2 8 3 12 24 11 61 -1 55 -1 55 -12
24 -22 -60 -38 -68 -138 -68 l-90 0 -2 103 -2 103 65 -3 c59 -3 65 -5 71 -28
8 -29 11 -16 14 53 0 27 -3 50 -7 53 -4 3 -8 -9 -8 -25 l0 -31 -65 0 -65 0 0
90 c0 103 6 110 85 110 62 0 102 -22 114 -63 9 -30 9 -29 10 21 l1 52 -155 0
c-97 0 -155 -4 -155 -10z"/>
<path d="M4050 860 c0 -82 3 -102 15 -107 9 -3 19 -2 23 2 4 4 1 10 -5 12 -9
3 -13 33 -13 99 0 56 -4 94 -10 94 -6 0 -10 -40 -10 -100z"/>
<path d="M4275 951 c-3 -5 -1 -12 5 -16 7 -4 7 -12 0 -26 -8 -13 -7 -19 0 -19
13 0 29 40 23 58 -6 14 -19 16 -28 3z"/>
<path d="M5720 860 c0 -82 3 -102 15 -107 9 -3 19 -2 23 2 4 4 1 10 -5 12 -9
3 -13 33 -13 99 0 56 -4 94 -10 94 -6 0 -10 -40 -10 -100z"/>
<path d="M5952 858 c3 -98 4 -103 26 -106 25 -4 30 13 7 22 -12 4 -15 25 -15
96 0 55 -4 90 -10 90 -7 0 -10 -37 -8 -102z"/>
<path d="M660 850 l0 -100 60 0 c71 0 81 18 13 22 l-48 3 -3 88 c-4 121 -22
111 -22 -13z"/>
<path d="M997 903 c-9 -2 -24 -18 -33 -34 -38 -74 37 -152 102 -105 27 20 14
28 -23 14 -25 -9 -35 -9 -47 1 -31 26 -19 41 34 41 49 0 50 1 50 29 0 20 -8
35 -22 45 -23 16 -29 17 -61 9z m51 -25 c24 -24 13 -38 -28 -38 -43 0 -45 2
-30 31 12 21 40 25 58 7z"/>
<path d="M1524 900 c-26 -10 -44 -57 -37 -94 10 -52 74 -73 108 -36 22 24 13
39 -10 16 -19 -19 -29 -20 -56 -6 -40 22 -12 122 30 104 9 -3 25 -8 36 -11 18
-4 18 -3 -4 16 -25 23 -35 24 -67 11z"/>
<path d="M1823 900 c-13 -5 -23 -14 -23 -20 0 -13 6 -13 31 1 15 8 24 7 35 -2
19 -15 6 -29 -38 -43 -36 -12 -49 -46 -28 -72 15 -17 52 -18 68 -2 8 8 15 8
27 -2 8 -7 19 -9 23 -5 4 4 1 10 -5 12 -8 3 -13 24 -13 56 0 29 -4 57 -8 63
-11 17 -44 24 -69 14z m57 -89 c0 -40 -61 -56 -68 -18 -2 10 5 21 20 26 36 15
48 13 48 -8z"/>
<path d="M2167 903 c-4 -3 -20 -6 -37 -5 l-31 1 3 -100 c3 -100 18 -134 28
-62 3 24 8 33 13 26 12 -20 55 -15 77 7 13 13 20 33 20 58 0 43 -6 55 -37 71
-25 13 -27 13 -36 4z m37 -35 c21 -30 20 -51 -3 -79 -16 -21 -22 -22 -45 -11
-21 9 -26 19 -26 46 0 59 45 86 74 44z"/>
<path d="M2993 900 c-45 -18 -56 -80 -22 -124 24 -30 69 -35 94 -10 22 22 15
26 -22 12 -25 -9 -35 -9 -47 1 -31 26 -19 41 34 41 48 0 50 1 50 29 0 43 -43
68 -87 51z m55 -22 c24 -24 13 -38 -28 -38 -26 0 -40 5 -40 13 0 18 21 37 40
37 9 0 21 -5 28 -12z"/>
<path d="M3552 899 c-18 -7 -23 -15 -20 -36 2 -22 11 -30 38 -39 38 -13 52
-40 24 -51 -9 -3 -25 -1 -35 5 -24 15 -29 15 -29 -2 0 -34 74 -35 96 -1 19 29
13 40 -34 63 -19 9 -37 23 -40 29 -5 18 27 28 49 15 11 -7 20 -8 24 -2 3 5 -3
14 -14 19 -23 13 -28 13 -59 0z"/>
<path d="M4516 886 c-32 -31 -34 -74 -5 -110 25 -32 68 -35 94 -6 20 22 6 27
-25 8 -23 -15 -53 -2 -58 25 -3 12 7 17 45 19 39 2 49 7 51 23 4 27 -17 53
-50 60 -21 5 -33 1 -52 -19z m74 -15 c15 -29 13 -31 -30 -31 -41 0 -52 14 -28
38 18 18 46 14 58 -7z"/>
<path d="M5133 900 c-47 -19 -57 -87 -18 -125 29 -30 65 -32 88 -7 22 24 9 37
-14 16 -38 -34 -89 18 -70 70 11 29 36 39 61 26 32 -17 46 -10 21 10 -25 22
-35 23 -68 10z"/>
<path d="M5440 903 c-27 -9 -40 -36 -40 -79 0 -46 24 -74 65 -74 26 0 63 26
52 36 -4 4 -13 2 -19 -4 -17 -17 -44 -15 -62 4 -26 26 -19 33 36 36 59 3 71
20 41 56 -20 22 -50 33 -73 25z m48 -25 c24 -24 13 -38 -28 -38 -43 0 -49 9
-24 34 19 19 36 20 52 4z"/>
<path d="M6213 900 c-45 -18 -56 -80 -22 -124 25 -32 68 -35 94 -6 20 22 6 27
-25 8 -23 -15 -53 -2 -58 26 -3 13 6 16 47 16 47 0 51 2 51 23 0 46 -44 74
-87 57z m57 -29 c15 -29 13 -31 -30 -31 -41 0 -52 14 -28 38 18 18 46 14 58
-7z"/>
<path d="M6540 900 c-8 -5 -23 -7 -32 -4 -16 5 -18 -3 -18 -70 0 -44 4 -76 10
-76 6 0 10 22 10 49 0 60 25 97 58 87 19 -7 22 -14 22 -66 0 -32 5 -62 10 -65
6 -4 10 20 10 65 0 66 -1 71 -26 80 -30 12 -26 12 -44 0z"/>
<path d="M6844 900 c-48 -19 -50 -113 -3 -139 30 -17 74 -8 83 15 9 24 0 29
-19 10 -21 -20 -39 -20 -59 0 -38 37 -1 118 43 95 33 -18 48 -12 22 9 -25 22
-35 23 -67 10z"/>
<path d="M7153 900 c-45 -18 -58 -90 -23 -128 26 -28 71 -28 95 -2 20 22 6 27
-24 8 -23 -14 -46 -6 -61 21 -10 20 -8 21 45 21 51 0 55 2 55 23 0 46 -44 74
-87 57z m51 -26 c25 -25 19 -34 -24 -34 -41 0 -52 14 -28 38 16 16 33 15 52
-4z"/>
<path d="M2640 890 c0 -5 12 -39 26 -75 18 -45 31 -65 41 -63 9 2 26 32 39 68
27 73 28 80 15 80 -5 0 -17 -21 -27 -47 -9 -27 -20 -52 -24 -56 -4 -5 -17 17
-30 47 -20 50 -40 73 -40 46z"/>
<path d="M3270 828 c0 -37 5 -70 10 -73 6 -4 10 10 10 34 0 55 15 91 39 91 11
0 23 4 26 10 4 6 -12 9 -40 8 l-45 -2 0 -68z"/>
<path d="M4817 865 c16 -33 15 -36 -2 -69 -24 -44 -12 -60 12 -17 10 17 21 31
25 31 4 0 15 -13 25 -30 9 -16 21 -30 25 -30 11 0 10 5 -9 45 -16 33 -16 37 0
70 19 41 5 47 -20 9 l-17 -26 -19 26 c-27 37 -40 32 -20 -9z"/>
<path d="M1885 611 c-53 -25 -78 -50 -105 -107 -50 -102 -36 -204 39 -283 54
-57 113 -76 194 -61 68 13 137 55 137 83 0 6 -10 1 -23 -11 -56 -52 -150 -66
-217 -32 -67 34 -100 100 -100 198 0 82 23 137 75 179 84 70 212 32 232 -68
11 -54 23 -29 23 46 0 62 -3 75 -16 75 -10 0 -14 -6 -11 -14 9 -24 -3 -25 -46
-5 -53 24 -131 24 -182 0z"/>
<path d="M2343 605 c-76 -38 -123 -120 -123 -215 0 -63 16 -106 58 -159 44
-54 89 -74 172 -74 101 0 161 40 206 137 43 92 24 193 -51 270 -69 71 -170 87
-262 41z m156 -1 c68 -27 121 -125 121 -222 0 -73 -39 -156 -89 -189 -66 -44
-162 -22 -208 49 -86 130 -46 332 73 368 43 12 60 12 103 -6z"/>
<path d="M3333 615 c-66 -29 -81 -120 -28 -175 15 -15 58 -42 95 -60 112 -51
148 -116 97 -175 -16 -20 -35 -28 -67 -32 -70 -7 -115 24 -147 102 -5 14 -9 1
-11 -44 -3 -65 3 -86 18 -62 7 12 13 12 40 1 44 -18 140 -16 179 5 40 20 65
75 57 120 -9 46 -44 80 -127 120 -96 46 -119 69 -119 114 1 66 51 100 121 81
43 -12 79 -56 79 -97 0 -13 4 -23 9 -23 11 0 19 117 10 132 -4 6 -10 4 -16 -6
-8 -15 -12 -15 -46 -1 -45 18 -102 19 -144 0z"/>
<path d="M5844 617 c-43 -16 -85 -54 -115 -102 -21 -35 -24 -52 -24 -132 0
-86 2 -94 30 -135 45 -63 100 -90 183 -90 37 1 86 8 110 16 43 15 45 16 61 16
5 0 11 34 13 76 3 65 7 79 27 95 l23 19 -71 0 c-43 0 -71 -4 -71 -10 0 -6 6
-10 13 -9 34 4 37 -1 37 -76 0 -83 -3 -87 -79 -104 -150 -33 -267 122 -217
290 31 106 116 163 208 138 46 -12 98 -62 98 -94 0 -13 5 -27 10 -30 6 -4 10
22 10 69 0 44 -4 76 -10 76 -5 0 -10 -7 -10 -15 0 -8 -4 -15 -9 -15 -5 0 -28
7 -51 15 -50 18 -122 18 -166 2z"/>
<path d="M2760 610 c0 -5 9 -10 20 -10 19 0 20 -7 20 -194 0 -202 -3 -226 -26
-226 -8 0 -14 -3 -14 -8 0 -9 96 -9 106 1 4 4 -5 7 -19 7 l-27 0 0 180 c0 99
3 180 8 179 6 0 75 -88 112 -143 59 -88 185 -246 196 -246 12 0 14 38 14 219
0 216 0 220 22 235 21 15 20 16 -35 16 -31 0 -56 -4 -56 -10 0 -5 10 -10 23
-10 l22 0 -3 -167 c-1 -93 -4 -174 -5 -182 -1 -8 -42 41 -92 108 -192 260
-193 261 -231 261 -19 0 -34 -4 -34 -10z"/>
<path d="M3630 609 c0 -5 10 -9 23 -7 22 3 22 2 27 -167 6 -190 15 -221 78
-258 47 -28 149 -27 194 1 62 39 72 69 78 246 5 150 7 159 29 177 l23 19 -56
0 c-35 0 -56 -4 -56 -11 0 -7 9 -9 21 -6 20 6 21 4 17 -156 -3 -176 -10 -203
-61 -241 -37 -28 -120 -28 -161 -1 -47 31 -56 68 -56 234 0 144 1 151 22 165
21 15 18 16 -50 16 -44 0 -72 -4 -72 -11z"/>
<path d="M4150 609 c0 -5 10 -9 23 -7 20 3 22 -1 23 -52 1 -30 -1 -124 -4
-209 -5 -139 -7 -154 -24 -158 -50 -14 -3 -20 142 -20 104 1 161 4 163 11 9
28 8 116 -2 116 -6 0 -11 -11 -11 -24 0 -64 -37 -86 -145 -86 l-75 0 0 179 c0
205 4 235 34 249 17 9 6 11 -51 11 -45 1 -73 -3 -73 -10z"/>
<path d="M4521 553 c1 -66 1 -67 10 -27 13 58 39 78 102 79 l52 0 3 -173 c3
-181 -7 -252 -34 -252 -8 0 -13 -4 -10 -8 7 -12 135 -12 142 -1 3 5 -9 9 -26
9 l-30 0 2 213 3 212 40 3 c60 3 87 -15 107 -73 l17 -50 1 68 0 67 -190 0
-190 0 1 -67z"/>
<path d="M4970 610 c0 -5 10 -10 23 -10 l22 0 -3 -200 c-3 -186 -4 -201 -22
-213 -11 -6 -20 -15 -20 -19 0 -12 128 -10 135 2 4 6 -5 10 -19 10 l-26 0 0
198 c0 108 4 202 8 208 4 6 16 16 27 22 16 9 7 11 -52 12 -42 0 -73 -4 -73
-10z"/>
<path d="M5195 610 c4 -6 14 -9 23 -8 15 3 17 -11 16 -127 -2 -286 -2 -285
-26 -295 -26 -10 -21 -12 45 -15 26 -1 47 2 47 7 0 4 -9 8 -20 8 -19 0 -20 7
-21 143 0 78 -2 153 -4 167 -7 65 15 45 135 -117 128 -174 168 -223 182 -223
4 0 8 96 8 213 0 218 3 237 40 250 8 3 -13 6 -48 6 -40 1 -61 -3 -57 -9 3 -5
15 -10 26 -10 18 0 19 -9 19 -182 0 -111 -4 -178 -9 -173 -16 17 -102 129
-196 254 -87 118 -91 121 -128 121 -24 0 -36 -4 -32 -10z"/>
</g>
</svg>
